<svg height="2318" width="720" xmlns="http://www.w3.org/2000/svg">
<rect height="2318" fill="#555" width="720"></rect>
<text fill="#7f7" font-family="Courier New" font-size="12" xml:space="preserve">
<tspan x="10" y="26"></tspan>
<tspan x="10" y="42">&gt; npmdoc-selenium-webdriver@0.0.1 test /home/travis/build/npmdoc/node-npmdoc-selenium-webdriver</tspan>
<tspan x="10" y="58">&gt; (set -e; export PORT=$(utility2 shServerPortRandom); utility2 test test.js)</tspan>
<tspan x="10" y="74"></tspan>
<tspan x="10" y="90"></tspan>
<tspan x="10" y="106">[MODE_BUILD=npmTest] - 2017-03-25T12:29:12Z - npm-testing /home/travis/build/npmdoc/node-npmdoc-\</tspan>
<tspan x="10" y="122">selenium-webdriver</tspan>
<tspan x="10" y="138"></tspan>
<tspan x="10" y="154"></tspan>
<tspan x="10" y="170">covering $ /home/travis/.nvm/versions/node/v6.10.1/bin/node /home/travis/build/npmdoc/node-npmdo\</tspan>
<tspan x="10" y="186">c-selenium-webdriver/test.js</tspan>
<tspan x="10" y="202">merging file:///home/travis/build/npmdoc/node-npmdoc-selenium-webdriver/tmp/build/test-report.js\</tspan>
<tspan x="10" y="218">on to test-report</tspan>
<tspan x="10" y="234">&gt; server listening on http-port 54543</tspan>
<tspan x="10" y="250">created apidoc file:///home/travis/build/npmdoc/node-npmdoc-selenium-webdriver/tmp/build/apidoc.\</tspan>
<tspan x="10" y="266">html</tspan>
<tspan x="10" y="282"></tspan>
<tspan x="10" y="298"></tspan>
<tspan x="10" y="314">browserTest - created electron entry-page /home/travis/build/npmdoc/node-npmdoc-selenium-webdriv\</tspan>
<tspan x="10" y="330">er/tmp/electron.15b057127160.94f67a8ef0e3.html</tspan>
<tspan x="10" y="346"></tspan>
<tspan x="10" y="362">Xlib:  extension "RANDR" missing on display ":99.0".</tspan>
<tspan x="10" y="378"></tspan>
<tspan x="10" y="394">/home/travis/build/npmdoc/node-npmdoc-selenium-webdriver/node_modules/utility2/lib.utility2.sh.h\</tspan>
<tspan x="10" y="410">tml.js</tspan>
<tspan x="10" y="426"> #1 Line too long.</tspan>
<tspan x="10" y="442">    process.stdout.write('export npm_package_' + key.replace((/\W/g), '_') + '=' + JSON.stringif\</tspan>
<tspan x="10" y="458">y(value) + ';'); // Line 1445, Pos 116</tspan>
<tspan x="10" y="474"></tspan>
<tspan x="10" y="490">merging file:///home/travis/build/npmdoc/node-npmdoc-selenium-webdriver/tmp/build/test-report.js\</tspan>
<tspan x="10" y="506">on to test-report</tspan>
<tspan x="10" y="522">Xlib:  extension "RANDR" missing on display ":99.0".</tspan>
<tspan x="10" y="538">[4839:0325/122914:WARNING:audio_manager.cc(314)] Multiple instances of AudioManager detected</tspan>
<tspan x="10" y="554">[4839:0325/122914:WARNING:audio_manager.cc(275)] Multiple instances of AudioManager detected</tspan>
<tspan x="10" y="570">[4856:0325/122914:ERROR:sandbox_linux.cc(343)] InitializeSandbox() called with multiple threads \</tspan>
<tspan x="10" y="586">in process gpu-process. </tspan>
<tspan x="10" y="602">[4839:0325/122914:ERROR:browser_gpu_channel_host_factory.cc(131)] Failed to create channel.</tspan>
<tspan x="10" y="618">[node test-case 1 of 6 passed] - testCase_buildLib_default</tspan>
<tspan x="10" y="634">[node test-case 2 of 6 passed] - testCase_buildReadme_default</tspan>
<tspan x="10" y="650">[node test-case 3 of 6 passed] - testCase_buildTest_default</tspan>
<tspan x="10" y="666"></tspan>
<tspan x="10" y="682">browserTest - created electron entry-page /home/travis/build/npmdoc/node-npmdoc-selenium-webdriv\</tspan>
<tspan x="10" y="698">er/tmp/electron.15b05712ac60.eb3eb6e49847a.html</tspan>
<tspan x="10" y="714"></tspan>
<tspan x="10" y="730"></tspan>
<tspan x="10" y="746">browserTest - opened url file:///home/travis/build/npmdoc/node-npmdoc-selenium-webdriver/tmp/bui\</tspan>
<tspan x="10" y="762">ld/apidoc.html</tspan>
<tspan x="10" y="778"></tspan>
<tspan x="10" y="794">Xlib:  extension "RANDR" missing on display ":99.0".</tspan>
<tspan x="10" y="810">&gt; server listening on http-port 52520</tspan>
<tspan x="10" y="826"></tspan>
<tspan x="10" y="842">/home/travis/build/npmdoc/node-npmdoc-selenium-webdriver/node_modules/utility2/lib.utility2.sh.h\</tspan>
<tspan x="10" y="858">tml.js</tspan>
<tspan x="10" y="874"> #1 Line too long.</tspan>
<tspan x="10" y="890">    process.stdout.write('export npm_package_' + key.replace((/\W/g), '_') + '=' + JSON.stringif\</tspan>
<tspan x="10" y="906">y(value) + ';'); // Line 1445, Pos 116</tspan>
<tspan x="10" y="922"></tspan>
<tspan x="10" y="938">merging file:///home/travis/build/npmdoc/node-npmdoc-selenium-webdriver/tmp/build/test-report.js\</tspan>
<tspan x="10" y="954">on to test-report</tspan>
<tspan x="10" y="970">Xlib:  extension "RANDR" missing on display ":99.0".</tspan>
<tspan x="10" y="986">[4897:0325/122915:WARNING:audio_manager.cc(314)] Multiple instances of AudioManager detected</tspan>
<tspan x="10" y="1002">[4897:0325/122915:WARNING:audio_manager.cc(275)] Multiple instances of AudioManager detected</tspan>
<tspan x="10" y="1018">[4929:0325/122915:ERROR:sandbox_linux.cc(343)] InitializeSandbox() called with multiple threads \</tspan>
<tspan x="10" y="1034">in process gpu-process. </tspan>
<tspan x="10" y="1050">[4897:0325/122915:ERROR:browser_gpu_channel_host_factory.cc(131)] Failed to create channel.</tspan>
<tspan x="10" y="1066"></tspan>
<tspan x="10" y="1082">browserTest - opened url http://127.0.0.1:54543?modeTest=1</tspan>
<tspan x="10" y="1098"></tspan>
<tspan x="10" y="1114">[4897:0325/122917:INFO:CONSOLE(203)] "----------|-----------|-----------|-----------|-----------\</tspan>
<tspan x="10" y="1130">|</tspan>
<tspan x="10" y="1146">File      |   % Stmts |% Branches |   % Funcs |   % Lines |</tspan>
<tspan x="10" y="1162">----------|-----------|-----------|-----------|-----------|</tspan>
<tspan x="10" y="1178">----------|-----------|-----------|-----------|-----------|</tspan>
<tspan x="10" y="1194">All files |       100 |       100 |       100 |       100 |</tspan>
<tspan x="10" y="1210">----------|-----------|-----------|-----------|-----------|</tspan>
<tspan x="10" y="1226">", source: file:///home/travis/build/npmdoc/node-npmdoc-selenium-webdriver/tmp/electron.15b05712\</tspan>
<tspan x="10" y="1242">ac60.eb3eb6e49847a.html (203)</tspan>
<tspan x="10" y="1258">[4897:0325/122917:INFO:CONSOLE(203)] "created coverage file:///tmp/build/coverage.html/index.htm\</tspan>
<tspan x="10" y="1274">l", source: file:///home/travis/build/npmdoc/node-npmdoc-selenium-webdriver/tmp/electron.15b0571\</tspan>
<tspan x="10" y="1290">2ac60.eb3eb6e49847a.html (203)</tspan>
<tspan x="10" y="1306"></tspan>
<tspan x="10" y="1322">browserTest - created screen-capture file:///home/travis/build/npmdoc/node-npmdoc-selenium-webdr\</tspan>
<tspan x="10" y="1338">iver/tmp/build/screen-capture.npmTest.browser._2Fhome_2Ftravis_2Fbuild_2Fnpmdoc_2Fnode-npmdoc-se\</tspan>
<tspan x="10" y="1354">lenium-webdriver_2Ftmp_2Fbuild_2Fapidoc.html.png</tspan>
<tspan x="10" y="1370"></tspan>
<tspan x="10" y="1386"></tspan>
<tspan x="10" y="1402">browserTest - exit-code 0 - file:///home/travis/build/npmdoc/node-npmdoc-selenium-webdriver/tmp/\</tspan>
<tspan x="10" y="1418">build/apidoc.html</tspan>
<tspan x="10" y="1434"></tspan>
<tspan x="10" y="1450">[node test-case 4 of 6 passed] - testCase_buildApidoc_default</tspan>
<tspan x="10" y="1466">[node test-case 5 of 6 passed] - testCase_buildApp_default</tspan>
<tspan x="10" y="1482"></tspan>
<tspan x="10" y="1498">browserTest - created screen-capture file:///home/travis/build/npmdoc/node-npmdoc-selenium-webdr\</tspan>
<tspan x="10" y="1514">iver/tmp/build/screen-capture.npmTest.browser..png</tspan>
<tspan x="10" y="1530"></tspan>
<tspan x="10" y="1546"></tspan>
<tspan x="10" y="1562">browserTest - exit-code 0 - http://127.0.0.1:54543?modeTest=1</tspan>
<tspan x="10" y="1578"></tspan>
<tspan x="10" y="1594"></tspan>
<tspan x="10" y="1610">browserTest - merged coverage from /home/travis/build/npmdoc/node-npmdoc-selenium-webdriver/tmp/\</tspan>
<tspan x="10" y="1626">coverage.npmTest.browser.%2F.json</tspan>
<tspan x="10" y="1642"></tspan>
<tspan x="10" y="1658"></tspan>
<tspan x="10" y="1674">browserTest - merging test-report from /home/travis/build/npmdoc/node-npmdoc-selenium-webdriver/\</tspan>
<tspan x="10" y="1690">tmp/test-report.npmTest.browser.%2F.json</tspan>
<tspan x="10" y="1706"></tspan>
<tspan x="10" y="1722">[node test-case 6 of 6 passed] - testCase_webpage_default</tspan>
<tspan x="10" y="1738">---------------------------------------|-----------|-----------|-----------|-----------|</tspan>
<tspan x="10" y="1754">File                                   |   % Stmts |% Branches |   % Funcs |   % Lines |</tspan>
<tspan x="10" y="1770">---------------------------------------|-----------|-----------|-----------|-----------|</tspan>
<tspan x="10" y="1786">   node-npmdoc-selenium-webdriver/     |       100 |       100 |       100 |       100 |</tspan>
<tspan x="10" y="1802">      example.js                       |       100 |       100 |       100 |       100 |</tspan>
<tspan x="10" y="1818">      lib.npmdoc_selenium_webdriver.js |       100 |       100 |       100 |       100 |</tspan>
<tspan x="10" y="1834">      test.js                          |       100 |       100 |       100 |       100 |</tspan>
<tspan x="10" y="1850">---------------------------------------|-----------|-----------|-----------|-----------|</tspan>
<tspan x="10" y="1866">All files                              |       100 |       100 |       100 |       100 |</tspan>
<tspan x="10" y="1882">---------------------------------------|-----------|-----------|-----------|-----------|</tspan>
<tspan x="10" y="1898"></tspan>
<tspan x="10" y="1914">created coverage file:///home/travis/build/npmdoc/node-npmdoc-selenium-webdriver/tmp/build/cover\</tspan>
<tspan x="10" y="1930">age.html/index.html</tspan>
<tspan x="10" y="1946"></tspan>
<tspan x="10" y="1962">/home/travis/build/npmdoc/node-npmdoc-selenium-webdriver/node_modules/utility2/lib.utility2.sh.h\</tspan>
<tspan x="10" y="1978">tml.js</tspan>
<tspan x="10" y="1994"> #1 Line too long.</tspan>
<tspan x="10" y="2010">    process.stdout.write('export npm_package_' + key.replace((/\W/g), '_') + '=' + JSON.stringif\</tspan>
<tspan x="10" y="2026">y(value) + ';'); // Line 1445, Pos 116</tspan>
<tspan x="10" y="2042"></tspan>
<tspan x="10" y="2058">merging file:///home/travis/build/npmdoc/node-npmdoc-selenium-webdriver/tmp/build/test-report.js\</tspan>
<tspan x="10" y="2074">on to test-report</tspan>
<tspan x="10" y="2090"></tspan>
<tspan x="10" y="2106">-------------------------------------------------------</tspan>
<tspan x="10" y="2122">| test-report - buildNpmdoc - node - linux v6.10.1 - 2017-03-25T12:29:01.307Z</tspan>
<tspan x="10" y="2138">|   18048 ms            0 failed        6 passed      |</tspan>
<tspan x="10" y="2154">-------------------------------------------------------</tspan>
<tspan x="10" y="2170"></tspan>
<tspan x="10" y="2186">created test-report file:///home/travis/build/npmdoc/node-npmdoc-selenium-webdriver/tmp/build/te\</tspan>
<tspan x="10" y="2202">st-report.html</tspan>
<tspan x="10" y="2218"></tspan>
<tspan x="10" y="2234"></tspan>
<tspan x="10" y="2250">npmTest - 0 failed tests</tspan>
<tspan x="10" y="2266"></tspan>
<tspan x="10" y="2282"></tspan>
<tspan x="10" y="2298">[MODE_BUILD=npmTest] - 2017-03-25T12:29:22Z - EXIT_CODE - 0</tspan>
</text>
</svg>
