<svg height="1934" width="720" xmlns="http://www.w3.org/2000/svg">
<rect height="1934" fill="#555" width="720"></rect>
<text fill="#7f7" font-family="Courier New" font-size="12" xml:space="preserve">
<tspan x="10" y="26"></tspan>
<tspan x="10" y="42">&gt; npmdoc-selenium-webdriver@0.0.4 test /home/travis/build/npmdoc/node-npmdoc-selenium-webdriver</tspan>
<tspan x="10" y="58">&gt; (set -e; export PORT=$(utility2 shServerPortRandom); utility2 test test.js)</tspan>
<tspan x="10" y="74"></tspan>
<tspan x="10" y="90"></tspan>
<tspan x="10" y="106">[MODE_BUILD=npmTest] - 2017-04-07T19:14:01Z - npm-testing /home/travis/build/npmdoc/node-npmdoc-\</tspan>
<tspan x="10" y="122">selenium-webdriver</tspan>
<tspan x="10" y="138"></tspan>
<tspan x="10" y="154"></tspan>
<tspan x="10" y="170">covering $ /home/travis/.nvm/versions/node/v6.10.2/bin/node /home/travis/build/npmdoc/node-npmdo\</tspan>
<tspan x="10" y="186">c-selenium-webdriver/test.js</tspan>
<tspan x="10" y="202">merging file:///home/travis/build/npmdoc/node-npmdoc-selenium-webdriver/tmp/build/test-report.js\</tspan>
<tspan x="10" y="218">on to test-report</tspan>
<tspan x="10" y="234">&gt; server listening on http-port 37318</tspan>
<tspan x="10" y="250">created apidoc file:///home/travis/build/npmdoc/node-npmdoc-selenium-webdriver/tmp/build/apidoc.\</tspan>
<tspan x="10" y="266">html</tspan>
<tspan x="10" y="282"></tspan>
<tspan x="10" y="298"></tspan>
<tspan x="10" y="314">browserTest - created electron entry-page /home/travis/build/npmdoc/node-npmdoc-selenium-webdriv\</tspan>
<tspan x="10" y="330">er/tmp/electron.15b49d6778c0.44d9524a6805f.html</tspan>
<tspan x="10" y="346"></tspan>
<tspan x="10" y="362">Xlib:  extension "RANDR" missing on display ":99.0".</tspan>
<tspan x="10" y="378">merging file:///home/travis/build/npmdoc/node-npmdoc-selenium-webdriver/tmp/build/test-report.js\</tspan>
<tspan x="10" y="394">on to test-report</tspan>
<tspan x="10" y="410">Xlib:  extension "RANDR" missing on display ":99.0".</tspan>
<tspan x="10" y="426">[7467:0407/191404:WARNING:audio_manager.cc(314)] Multiple instances of AudioManager detected</tspan>
<tspan x="10" y="442">[7467:0407/191404:WARNING:audio_manager.cc(275)] Multiple instances of AudioManager detected</tspan>
<tspan x="10" y="458">[7484:0407/191404:ERROR:sandbox_linux.cc(343)] InitializeSandbox() called with multiple threads \</tspan>
<tspan x="10" y="474">in process gpu-process. </tspan>
<tspan x="10" y="490">[7467:0407/191404:ERROR:browser_gpu_channel_host_factory.cc(131)] Failed to create channel.</tspan>
<tspan x="10" y="506"></tspan>
<tspan x="10" y="522">browserTest - opened url /home/travis/build/npmdoc/node-npmdoc-selenium-webdriver/tmp/build/apid\</tspan>
<tspan x="10" y="538">oc.html</tspan>
<tspan x="10" y="554"></tspan>
<tspan x="10" y="570">[node test-case 1 of 6 passed] - testCase_buildLib_default</tspan>
<tspan x="10" y="586">[node test-case 2 of 6 passed] - testCase_buildReadme_default</tspan>
<tspan x="10" y="602">[node test-case 3 of 6 passed] - testCase_buildTest_default</tspan>
<tspan x="10" y="618"></tspan>
<tspan x="10" y="634">browserTest - created electron entry-page /home/travis/build/npmdoc/node-npmdoc-selenium-webdriv\</tspan>
<tspan x="10" y="650">er/tmp/electron.15b49d67e3e0.7682ad984a4eb.html</tspan>
<tspan x="10" y="666"></tspan>
<tspan x="10" y="682">Xlib:  extension "RANDR" missing on display ":99.0".</tspan>
<tspan x="10" y="698">&gt; server listening on http-port 44594</tspan>
<tspan x="10" y="714">merging file:///home/travis/build/npmdoc/node-npmdoc-selenium-webdriver/tmp/build/test-report.js\</tspan>
<tspan x="10" y="730">on to test-report</tspan>
<tspan x="10" y="746">Xlib:  extension "RANDR" missing on display ":99.0".</tspan>
<tspan x="10" y="762">[7523:0407/191406:WARNING:audio_manager.cc(314)] Multiple instances of AudioManager detected</tspan>
<tspan x="10" y="778">[7523:0407/191406:WARNING:audio_manager.cc(275)] Multiple instances of AudioManager detected</tspan>
<tspan x="10" y="794">[7554:0407/191406:ERROR:sandbox_linux.cc(343)] InitializeSandbox() called with multiple threads \</tspan>
<tspan x="10" y="810">in process gpu-process. </tspan>
<tspan x="10" y="826">[7523:0407/191406:ERROR:browser_gpu_channel_host_factory.cc(131)] Failed to create channel.</tspan>
<tspan x="10" y="842"></tspan>
<tspan x="10" y="858">browserTest - opened url http://127.0.0.1:37318?modeTest=1</tspan>
<tspan x="10" y="874"></tspan>
<tspan x="10" y="890">[7523:0407/191407:INFO:CONSOLE(249)] "----------|-----------|-----------|-----------|-----------\</tspan>
<tspan x="10" y="906">|</tspan>
<tspan x="10" y="922">File      |   % Stmts |% Branches |   % Funcs |   % Lines |</tspan>
<tspan x="10" y="938">----------|-----------|-----------|-----------|-----------|</tspan>
<tspan x="10" y="954">----------|-----------|-----------|-----------|-----------|</tspan>
<tspan x="10" y="970">All files |       100 |       100 |       100 |       100 |</tspan>
<tspan x="10" y="986">----------|-----------|-----------|-----------|-----------|</tspan>
<tspan x="10" y="1002">", source: file:///home/travis/build/npmdoc/node-npmdoc-selenium-webdriver/tmp/electron.15b49d67\</tspan>
<tspan x="10" y="1018">e3e0.7682ad984a4eb.html (249)</tspan>
<tspan x="10" y="1034">[7523:0407/191407:INFO:CONSOLE(249)] "created coverage file:///tmp/build/coverage.html/index.htm\</tspan>
<tspan x="10" y="1050">l", source: file:///home/travis/build/npmdoc/node-npmdoc-selenium-webdriver/tmp/electron.15b49d6\</tspan>
<tspan x="10" y="1066">7e3e0.7682ad984a4eb.html (249)</tspan>
<tspan x="10" y="1082">[node test-case 4 of 6 passed] - testCase_buildApp_default</tspan>
<tspan x="10" y="1098"></tspan>
<tspan x="10" y="1114">browserTest - exit-code 1 - /home/travis/build/npmdoc/node-npmdoc-selenium-webdriver/tmp/build/a\</tspan>
<tspan x="10" y="1130">pidoc.html</tspan>
<tspan x="10" y="1146"></tspan>
<tspan x="10" y="1162">[node test-case 5 of 6 passed] - testCase_buildApidoc_default</tspan>
<tspan x="10" y="1178"></tspan>
<tspan x="10" y="1194">browserTest - created screenCapture file:///home/travis/build/npmdoc/node-npmdoc-selenium-webdri\</tspan>
<tspan x="10" y="1210">ver/tmp/build/screenCapture.%2F.png</tspan>
<tspan x="10" y="1226"></tspan>
<tspan x="10" y="1242">browserTest - created screenCapture file:///home/travis/build/npmdoc/node-npmdoc-selenium-webdri\</tspan>
<tspan x="10" y="1258">ver/tmp/build/screenCapture.%2F.html</tspan>
<tspan x="10" y="1274"></tspan>
<tspan x="10" y="1290">browserTest - exit-code 0 - http://127.0.0.1:37318?modeTest=1</tspan>
<tspan x="10" y="1306"></tspan>
<tspan x="10" y="1322"></tspan>
<tspan x="10" y="1338">browserTest - merged coverage from /home/travis/build/npmdoc/node-npmdoc-selenium-webdriver/tmp/\</tspan>
<tspan x="10" y="1354">coverage.%2F.json</tspan>
<tspan x="10" y="1370"></tspan>
<tspan x="10" y="1386"></tspan>
<tspan x="10" y="1402">browserTest - merging test-report from /home/travis/build/npmdoc/node-npmdoc-selenium-webdriver/\</tspan>
<tspan x="10" y="1418">tmp/test-report.%2F.json</tspan>
<tspan x="10" y="1434"></tspan>
<tspan x="10" y="1450">[node test-case 6 of 6 passed] - testCase_webpage_default</tspan>
<tspan x="10" y="1466">---------------------------------------|-----------|-----------|-----------|-----------|</tspan>
<tspan x="10" y="1482">File                                   |   % Stmts |% Branches |   % Funcs |   % Lines |</tspan>
<tspan x="10" y="1498">---------------------------------------|-----------|-----------|-----------|-----------|</tspan>
<tspan x="10" y="1514">   node-npmdoc-selenium-webdriver/     |       100 |       100 |       100 |       100 |</tspan>
<tspan x="10" y="1530">      example.js                       |       100 |       100 |       100 |       100 |</tspan>
<tspan x="10" y="1546">      lib.npmdoc_selenium_webdriver.js |       100 |       100 |       100 |       100 |</tspan>
<tspan x="10" y="1562">      test.js                          |       100 |       100 |       100 |       100 |</tspan>
<tspan x="10" y="1578">---------------------------------------|-----------|-----------|-----------|-----------|</tspan>
<tspan x="10" y="1594">All files                              |       100 |       100 |       100 |       100 |</tspan>
<tspan x="10" y="1610">---------------------------------------|-----------|-----------|-----------|-----------|</tspan>
<tspan x="10" y="1626"></tspan>
<tspan x="10" y="1642">created coverage file:///home/travis/build/npmdoc/node-npmdoc-selenium-webdriver/tmp/build/cover\</tspan>
<tspan x="10" y="1658">age.html/index.html</tspan>
<tspan x="10" y="1674">merging file:///home/travis/build/npmdoc/node-npmdoc-selenium-webdriver/tmp/build/test-report.js\</tspan>
<tspan x="10" y="1690">on to test-report</tspan>
<tspan x="10" y="1706"></tspan>
<tspan x="10" y="1722">-------------------------------------------------------</tspan>
<tspan x="10" y="1738">| test-report - buildNpmdoc - node - linux v6.10.2 - 2017-04-07T19:13:20.999Z</tspan>
<tspan x="10" y="1754">|   59191 ms            0 failed        6 passed      |</tspan>
<tspan x="10" y="1770">-------------------------------------------------------</tspan>
<tspan x="10" y="1786"></tspan>
<tspan x="10" y="1802">created test-report file:///home/travis/build/npmdoc/node-npmdoc-selenium-webdriver/tmp/build/te\</tspan>
<tspan x="10" y="1818">st-report.html</tspan>
<tspan x="10" y="1834"></tspan>
<tspan x="10" y="1850"></tspan>
<tspan x="10" y="1866">npmTest - 0 failed tests</tspan>
<tspan x="10" y="1882"></tspan>
<tspan x="10" y="1898"></tspan>
<tspan x="10" y="1914">[MODE_BUILD=npmTest] - 2017-04-07T19:14:23Z - EXIT_CODE - 0</tspan>
</text>
</svg>
